<svg width="1797" height="559" viewBox="0 0 1797 559" fill="none" xmlns="http://www.w3.org/2000/svg">
<path d="M187.51 365.089C194.994 368.431 203.359 369.262 211.355 367.46C219.35 365.658 226.549 361.319 231.877 355.09C237.205 348.862 240.376 341.077 240.917 332.899C241.458 324.72 239.34 316.586 234.88 309.709C230.419 302.833 223.854 297.583 216.166 294.743C208.477 291.904 200.076 291.626 192.216 293.952C184.357 296.278 177.46 301.083 172.555 307.65C167.65 314.217 165 322.193 165 330.39" stroke="#9370E4" stroke-width="6"/>
<circle cx="21.9138" cy="21.9138" r="20.4138" transform="matrix(-1 0 0 1 225.621 309.183)" stroke="#D3C0FF" stroke-width="3"/>
<rect width="88.983" height="88.983" transform="matrix(-1 0 0 1 105 0)" fill="#D1BDFF"/>
<rect x="-0.5" y="0.5" width="87.983" height="87.983" transform="matrix(-1 0 0 1 87.983 17.7966)" stroke="#9370E4"/>
<rect width="36.3138" height="36.3138" transform="matrix(-0.707107 -0.707107 -0.707107 0.707107 226.355 177.068)" fill="#009CA5"/>
<path d="M142 520.89C142 530.836 138.049 540.374 131.017 547.406C123.984 554.439 114.446 558.39 104.5 558.39C94.5544 558.39 85.0161 554.439 77.9835 547.406C70.9509 540.374 67 530.836 67 520.89L104.5 520.89H142Z" fill="#009CA5"/>
<path d="M105 511.89C105 501.944 101.049 492.406 94.0165 485.373C86.9839 478.341 77.4456 474.39 67.5 474.39C57.5544 474.39 48.0161 478.341 40.9835 485.373C33.9509 492.406 30 501.944 30 511.89L67.5 511.89H105Z" fill="#9370E4"/>
<circle cx="40.5" cy="40.5" r="40.5" transform="matrix(-1 0 0 1 1797 14)" fill="#9370E4"/>
<circle cx="21.6466" cy="21.6466" r="20.1466" transform="matrix(-1 0 0 1 1778.84 33.5517)" stroke="#D3C0FF" stroke-width="3"/>
<rect width="63.5593" height="63.5593" transform="matrix(-1 0 0 1 1617 307)" fill="#472BE3"/>
<rect x="-0.5" y="0.5" width="62.5593" height="62.5593" transform="matrix(-1 0 0 1 1604.56 319.712)" stroke="#9370E4"/>
<path d="M1643 497C1643 509.73 1648.06 521.939 1657.06 530.941C1666.06 539.943 1678.27 545 1691 545C1703.73 545 1715.94 539.943 1724.94 530.941C1733.94 521.939 1739 509.73 1739 497L1691 497H1643Z" fill="#D1BDFF"/>
<mask id="path-13-inside-1_2051_1587" fill="white">
<path d="M1505 172.5C1505 162.554 1508.95 153.016 1515.98 145.983C1523.02 138.951 1532.55 135 1542.5 135C1552.45 135 1561.98 138.951 1569.02 145.983C1576.05 153.016 1580 162.554 1580 172.5L1542.5 172.5H1505Z"/>
</mask>
<path d="M1505 172.5C1505 162.554 1508.95 153.016 1515.98 145.983C1523.02 138.951 1532.55 135 1542.5 135C1552.45 135 1561.98 138.951 1569.02 145.983C1576.05 153.016 1580 162.554 1580 172.5L1542.5 172.5H1505Z" stroke="#009CA5" stroke-width="10" mask="url(#path-13-inside-1_2051_1587)"/>
<path d="M1505 172.5C1505 182.446 1508.95 191.984 1515.98 199.017C1523.02 206.049 1532.55 210 1542.5 210C1552.45 210 1561.98 206.049 1569.02 199.017C1576.05 191.984 1580 182.446 1580 172.5L1542.5 172.5H1505Z" fill="#009CA5"/>
</svg>
