<svg width="121" height="29" viewBox="0 0 121 29" fill="none" xmlns="http://www.w3.org/2000/svg">
<path d="M2.13965 26.5239H9.81154V28.2665H0V6.9047H2.13965V26.5278V26.5239ZM27.5995 20.7488H13.7554C13.8171 22.0133 14.1217 23.0928 14.673 23.9872C15.2243 24.8855 15.9452 25.5601 16.8435 26.0189C17.7417 26.4777 18.7171 26.7051 19.7773 26.7051C21.1613 26.7051 22.3294 26.3697 23.2778 25.6951C24.2262 25.0242 24.8508 24.1183 25.1592 22.9733H27.4222C27.0135 24.604 26.1423 25.9341 24.8084 26.9634C23.4744 27.9928 21.7974 28.5055 19.7811 28.5055C18.2121 28.5055 16.8049 28.1547 15.5635 27.4492C14.3222 26.7475 13.3468 25.749 12.6451 24.4537C11.9435 23.1583 11.5927 21.6471 11.5927 19.9161C11.5927 18.1851 11.9396 16.6661 12.6336 15.3631C13.3275 14.06 14.2952 13.0615 15.5365 12.3676C16.7779 11.6736 18.1966 11.3266 19.785 11.3266C21.3734 11.3266 22.7651 11.6736 23.9564 12.3676C25.1476 13.0615 26.0652 13.9945 26.709 15.1626C27.3528 16.3346 27.6728 17.6338 27.6728 19.0602C27.6728 19.7927 27.6535 20.3556 27.6111 20.7411L27.5995 20.7488ZM24.7428 15.8295C24.2224 14.9544 23.5169 14.2913 22.6186 13.8441C21.7203 13.3969 20.745 13.1733 19.6848 13.1733C18.0964 13.1733 16.7394 13.6822 15.6214 14.7C14.4995 15.7177 13.8788 17.1557 13.7554 19.0101H25.4907C25.51 17.7687 25.2633 16.7085 24.7428 15.8295ZM31.3121 15.3862C31.9945 14.0908 32.9429 13.0923 34.1534 12.3907C35.364 11.689 36.7364 11.3344 38.2631 11.3344C39.7897 11.3344 41.2239 11.7006 42.3727 12.4331C43.5255 13.1656 44.3543 14.1024 44.8632 15.2435V11.5772H47.0029V28.2665H44.8632V24.5693C44.3312 25.7105 43.4908 26.655 42.3419 27.3952C41.1892 28.1393 39.8206 28.5094 38.2322 28.5094C36.6439 28.5094 35.364 28.1547 34.1534 27.4415C32.939 26.7283 31.9945 25.7182 31.3121 24.4151C30.6297 23.1121 30.2866 21.6047 30.2866 19.8929C30.2866 18.1812 30.6259 16.6777 31.3121 15.3862ZM44.0421 16.3808C43.4908 15.3631 42.7429 14.5766 41.7945 14.0292C40.8461 13.4779 39.8013 13.2041 38.6602 13.2041C37.519 13.2041 36.4203 13.4701 35.4796 13.9983C34.5428 14.5303 33.8026 15.2975 33.2629 16.3076C32.7231 17.3177 32.4533 18.5128 32.4533 19.9007C32.4533 21.2885 32.7231 22.4644 33.2629 23.4937C33.8026 24.5231 34.5428 25.3095 35.4796 25.8493C36.4164 26.389 37.4766 26.6589 38.6602 26.6589C39.8437 26.6589 40.8461 26.3851 41.7945 25.8338C42.7429 25.2825 43.4908 24.4999 44.0421 23.4822C44.5934 22.4644 44.8671 21.2808 44.8671 19.9354C44.8671 18.5899 44.5934 17.4102 44.0421 16.3885V16.3808ZM55.8853 12.1324C56.853 11.5618 58.0404 11.2765 59.4475 11.2765V13.5087H58.8654C57.3156 13.5087 56.0742 13.9251 55.1374 14.7616C54.2006 15.5982 53.7302 16.9938 53.7302 18.9484V28.2703H51.5906V11.5811H53.7302V14.5458C54.2006 13.5048 54.9176 12.703 55.8853 12.1324ZM75.065 13.127C76.3295 14.3607 76.9618 16.1495 76.9618 18.4896V28.2703H74.853V18.7325C74.853 16.9206 74.3981 15.5327 73.4921 14.5766C72.5861 13.6205 71.3486 13.1386 69.7795 13.1386C68.2104 13.1386 66.8881 13.6475 65.9282 14.6653C64.9721 15.683 64.4902 17.1827 64.4902 19.1566V28.2665H62.3505V11.5811H64.4902V14.4224C65.0183 13.4046 65.7855 12.6259 66.784 12.0861C67.7825 11.5464 68.9121 11.2765 70.1766 11.2765C72.1736 11.2765 73.8044 11.8934 75.065 13.127ZM94.3489 24.2069H85.8519L84.4448 28.2703H79.9535L87.6253 6.9047H92.6063L100.278 28.2703H95.756L94.3489 24.2069ZM93.1884 20.7835L90.1004 11.8587L87.0124 20.7835H93.1846H93.1884ZM107.187 13.8094V28.2703H102.907V13.8094H107.187ZM114.095 6.90856V0H109.816V6.9047H102.911V11.184H109.816V18.0887H114.095V11.184H121V6.9047H114.095V6.90856Z" fill="#9370E4"/>
</svg>
