<svg width="66" height="65" viewBox="0 0 66 65" fill="none" xmlns="http://www.w3.org/2000/svg">
<circle cx="32.8392" cy="32.4093" r="32.4095" fill="#9370E4"/>
<path d="M25.6234 44.136H24.297C22.5855 44.136 21.1593 43.4514 20.0183 42.0822C18.9058 40.6845 18.3496 38.6592 18.3496 36.0064L18.3924 35.6641V35.3218C18.3924 31.9845 19.5334 28.804 21.8154 25.7804C24.0973 22.7282 26.1796 21.2021 28.0622 21.2021H28.5757C29.46 21.2021 29.9021 21.8154 29.9021 23.042L27.2493 26.5933C26.1083 28.1051 25.5378 29.5884 25.5378 31.0431C25.5378 31.8704 26.3793 33.0541 28.0622 34.5945C29.7737 36.1063 30.6295 37.4897 30.6295 38.7448V39.3438C30.6295 40.713 30.059 41.854 28.918 42.7668C27.8055 43.6796 26.7073 44.136 25.6234 44.136ZM35.1649 36.3059V35.6641C35.1649 32.1556 36.3059 28.8753 38.5878 25.8231C40.8983 22.7425 43.0662 21.2021 45.0915 21.2021C46.1469 21.2021 46.6746 21.7441 46.6746 22.8281C46.6746 23.0277 45.9472 24.0831 44.4924 25.9943C43.0662 27.9054 42.3531 29.674 42.3531 31.2999C42.3531 31.9274 43.1946 33.0113 44.8775 34.5517C46.589 36.0635 47.4447 37.4612 47.4447 38.7448V39.3438C47.4447 40.6845 46.8742 41.8112 45.7333 42.724C44.6208 43.6368 43.5083 44.0932 42.3959 44.0932H41.0695C39.3865 44.0932 37.9746 43.4086 36.8336 42.0394C35.7211 40.6702 35.1649 38.7591 35.1649 36.3059Z" fill="white"/>
</svg>
