<svg width="186" height="552" viewBox="0 0 186 552" fill="none" xmlns="http://www.w3.org/2000/svg">
<line x1="95" y1="8.74228e-08" x2="95" y2="381" stroke="#D0E3FF" stroke-width="4"/>
<path d="M121.65 392.775L104.521 391.704L99.1763 385.596L93 378.537L86.8237 385.596L81.4789 391.704L64.3501 392.775L36.2122 394.533L28.9849 394.985L28.5332 402.212L26.7746 430.35L25.7041 447.479L19.5957 452.824L12.5371 459L19.5957 465.176L25.7041 470.521L26.7746 487.65L28.5332 515.788L28.9864 523.039L36.2394 523.468L64.3773 525.133L81.3397 526.137L86.8237 532.404L93 539.463L99.1763 532.404L104.521 526.296L121.65 525.225L149.788 523.467L157.039 523.014L157.468 515.761L159.133 487.623L160.137 470.66L166.404 465.176L173.463 459L166.404 452.824L160.296 447.479L159.225 430.35L157.467 402.212L157.015 394.985L149.788 394.533L121.65 392.775ZM93 493C86.2754 493 79.7019 491.006 74.1106 487.27C68.5193 483.534 64.1615 478.224 61.5881 472.011C59.0147 465.799 58.3414 458.962 59.6533 452.367C60.9652 445.772 64.2034 439.713 68.9584 434.958C73.7134 430.203 79.7716 426.965 86.3669 425.653C92.9623 424.341 99.7986 425.015 106.011 427.588C112.224 430.161 117.534 434.519 121.27 440.111C125.006 445.702 127 452.275 127 459C127 468.017 123.418 476.665 117.042 483.042C110.665 489.418 102.017 493 93 493Z" fill="#472BE3" stroke="white" stroke-width="16.4138"/>
<circle cx="93" cy="456.655" r="28.1379" fill="white"/>
<path d="M96.6901 421.679C91.7285 421.166 86.7143 421.66 81.9479 423.13C77.1815 424.601 72.7609 427.018 68.9508 430.238L71.8819 433.825C78.3755 428.55 86.6382 425.953 94.9821 426.565C103.326 427.177 111.121 430.952 116.776 437.118C122.43 443.285 125.517 451.377 125.405 459.743C125.294 468.108 121.992 476.116 116.176 482.129C115.63 477.413 113.666 472.973 110.542 469.397C107.419 465.822 103.283 463.279 98.6832 462.104C100.933 460.826 102.697 458.839 103.7 456.453C104.702 454.067 104.888 451.417 104.227 448.915C103.565 446.413 102.095 444.2 100.045 442.621C97.9944 441.042 95.4793 440.186 92.8915 440.186C90.3037 440.186 87.7886 441.042 85.7382 442.621C83.6879 444.2 82.2176 446.413 81.5564 448.915C80.8953 451.417 81.0805 454.067 82.0832 456.453C83.0859 458.839 84.8498 460.826 87.0998 462.104C82.4996 463.279 78.3643 465.822 75.2409 469.397C72.1174 472.973 70.153 477.413 69.6074 482.129C68.8883 481.394 68.1848 480.613 67.497 479.784C62.9891 474.249 60.4084 467.395 60.1461 460.261C59.8838 453.127 61.9541 446.102 66.0432 440.25L62.2212 437.554C58.4813 442.919 56.2092 449.17 55.6301 455.685C55.051 462.199 56.1852 468.752 58.92 474.694C61.6548 480.635 65.8953 485.758 71.2209 489.555C76.5465 493.352 82.7722 495.69 89.2805 496.339C90.5111 496.468 91.7479 496.531 92.9853 496.526C102.601 496.498 111.839 492.778 118.792 486.135C125.745 479.492 129.881 470.433 130.347 460.829C130.814 451.224 127.575 441.807 121.298 434.522C115.022 427.236 106.188 422.639 96.6198 421.679H96.6901Z" fill="#472BE3"/>
<path d="M96.6901 421.679C91.7285 421.166 86.7143 421.66 81.9479 423.13C77.1815 424.601 72.7609 427.018 68.9508 430.238L71.8819 433.825C78.3755 428.55 86.6382 425.953 94.9821 426.565C103.326 427.177 111.121 430.952 116.776 437.118C122.43 443.285 125.517 451.377 125.405 459.743C125.294 468.108 121.992 476.116 116.176 482.129C115.63 477.413 113.666 472.973 110.542 469.397C107.419 465.822 103.283 463.279 98.6832 462.104C100.933 460.826 102.697 458.839 103.7 456.453C104.702 454.067 104.888 451.417 104.227 448.915C103.565 446.413 102.095 444.2 100.045 442.621C97.9944 441.042 95.4793 440.186 92.8915 440.186C90.3037 440.186 87.7886 441.042 85.7382 442.621C83.6879 444.2 82.2176 446.413 81.5564 448.915C80.8953 451.417 81.0805 454.067 82.0832 456.453C83.0859 458.839 84.8498 460.826 87.0998 462.104C82.4996 463.279 78.3643 465.822 75.2409 469.397C72.1174 472.973 70.153 477.413 69.6074 482.129C68.8883 481.394 68.1848 480.613 67.497 479.784C62.9891 474.249 60.4084 467.395 60.1461 460.261C59.8838 453.127 61.9541 446.102 66.0432 440.25L62.2212 437.554C58.4813 442.919 56.2092 449.17 55.6301 455.685C55.051 462.199 56.1852 468.752 58.92 474.694C61.6548 480.635 65.8953 485.758 71.2209 489.555C76.5465 493.352 82.7722 495.69 89.2805 496.339C90.5111 496.468 91.7479 496.531 92.9853 496.526C102.601 496.498 111.839 492.778 118.792 486.135C125.745 479.492 129.881 470.433 130.347 460.829C130.814 451.224 127.575 441.807 121.298 434.522C115.022 427.236 106.188 422.639 96.6198 421.679H96.6901Z" stroke="white"/>
</svg>
