<svg width="155" height="318" viewBox="0 0 155 318" fill="none" xmlns="http://www.w3.org/2000/svg">
<line x1="80" y1="8.74228e-08" x2="80" y2="229" stroke="#D0E3FF" stroke-width="4"/>
<path d="M109.304 196.423C109.428 196.371 109.566 196.327 109.72 196.296C109.788 196.293 109.853 196.291 109.915 196.291C109.943 196.291 109.97 196.291 109.997 196.292C110.017 196.292 110.037 196.293 110.057 196.293C110.064 196.294 110.072 196.294 110.079 196.294C110.103 196.295 110.127 196.296 110.151 196.298C110.158 196.298 110.165 196.299 110.172 196.299C110.184 196.3 110.197 196.301 110.209 196.302C110.463 196.321 110.659 196.365 110.793 196.403C111.072 196.483 111.277 196.596 111.438 196.72C111.717 196.935 111.994 197.301 112.137 197.73L110.433 197.992L110.331 198.007L110.303 198.012L110.223 198.024L110.195 198.028L110.143 198.036L110.051 198.05L109.56 198.126L108.178 198.339C108.157 197.631 108.427 197.142 108.636 196.897C108.772 196.739 108.991 196.554 109.304 196.423ZM129.633 196.697C128.759 186.214 119.382 177.959 108.643 178.844C97.773 179.723 89.9265 189.261 90.7685 199.789C91.657 211.727 102.504 218.894 112.114 217.674C122.444 216.632 130.519 207.33 129.633 196.697ZM112.228 198.24C112.229 198.286 112.227 198.332 112.225 198.378C112.224 198.4 112.222 198.422 112.22 198.445C112.146 199.29 111.584 199.98 110.804 200.215C110.704 200.245 110.6 200.268 110.493 200.283C110.488 200.283 110.483 200.284 110.478 200.285C110.456 200.288 110.434 200.29 110.412 200.292C110.406 200.293 110.399 200.293 110.393 200.294C110.387 200.294 110.382 200.295 110.377 200.295C110.361 200.296 110.346 200.297 110.331 200.298C110.295 200.3 110.259 200.301 110.224 200.302C110.104 200.303 109.99 200.296 109.883 200.283C109.38 200.22 109.023 200.012 108.825 199.842C108.654 199.695 108.452 199.451 108.319 199.095C108.301 199.046 108.285 198.996 108.269 198.943C108.235 198.823 108.208 198.692 108.193 198.55L109.607 198.442L110.078 198.405L110.173 198.398L110.225 198.394L110.254 198.392L110.332 198.386L110.358 198.384L110.497 198.373L112.228 198.24Z" fill="#472BE3" stroke="white" stroke-width="21.521"/>
<path d="M138.866 246.168V237C142.081 231.937 143.048 226.016 142.321 220.447L142.305 220.321L142.284 220.195L136.806 186.739L136.798 186.692L136.79 186.644C134.953 176.235 125.439 168.287 114.505 169.252L114.424 169.259L114.343 169.268L80.3005 172.985L80.2932 172.986L80.2858 172.987C77.4029 173.307 74.6687 174.093 72.1566 175.297C65.871 171.502 58.4657 169.222 50.4336 169.222C27.0764 169.222 8.17417 188.435 8.17417 211.677C8.17417 222.734 12.4231 232.903 19.4841 240.476L16.4308 244.493C16.4293 244.495 16.4278 244.497 16.4263 244.499C8.02573 255.513 10.7098 270.148 20.8066 277.937L20.8216 277.948L20.8366 277.96L56.4442 305.154L56.4841 305.185L56.5245 305.215C67.7927 313.594 82.7104 310.39 90.2318 300.844L90.2769 300.786L90.3208 300.728L107.273 278.369L110.621 282.119C113.281 285.292 116.934 286.218 119.692 286.218C123.309 286.218 126.388 284.525 128.356 282.556L128.507 282.406L128.649 282.247L143.91 265.226L144.004 265.12L144.095 265.011C147.042 261.475 147.515 256.644 145.935 252.786C144.523 249.179 141.722 247.117 138.866 246.168ZM117.637 189.82L122.633 221.459H113.823C108.549 221.459 103.744 224.612 101.64 229.379L91.4948 221.711C92.3265 218.286 92.6931 214.782 92.6931 211.286C92.6931 204.153 90.8663 197.427 87.7462 191.537L115.839 188.761L115.857 188.759C115.875 188.758 115.899 188.757 115.932 188.755C116.001 188.753 116.124 188.751 116.281 188.758C116.631 188.776 116.972 188.834 117.226 188.924C117.32 188.958 117.375 188.985 117.403 189.001C117.453 189.09 117.558 189.328 117.636 189.815C117.637 189.817 117.637 189.818 117.637 189.82ZM68.4674 289.57L62.8181 285.279L62.7338 285.215L38.6151 266.895L38.5881 266.875L32.7118 262.411C30.7957 260.9 30.3106 258.278 31.8781 256.049L68.4674 289.57ZM117.428 189.018C117.428 189.018 117.425 189.016 117.42 189.012C117.426 189.016 117.428 189.018 117.428 189.018ZM117.393 188.984C117.38 188.968 117.374 188.959 117.374 188.959C117.375 188.958 117.382 188.966 117.393 188.984ZM50.4336 188.786C62.9371 188.786 73.1285 198.978 73.1285 211.481C73.1285 223.855 63.0676 234.176 50.4336 234.176C37.9302 234.176 27.7387 223.985 27.7387 211.481C27.7387 199.141 37.9627 188.786 50.4336 188.786Z" fill="#472BE3" stroke="white" stroke-width="15.6517"/>
<ellipse cx="48.2815" cy="212.216" rx="16.6299" ry="11.7387" fill="white"/>
<path d="M51.9988 236.672C65.1071 236.085 75.6719 225.129 75.6719 211.825C75.6719 198.13 64.5201 186.782 50.6293 186.782C36.9341 186.782 25.7823 197.934 25.7823 211.825C25.7823 225.716 37.3254 237.259 51.9988 236.672ZM65.694 214.368C64.1288 214.368 62.955 213.194 62.955 211.629C62.955 210.064 64.1288 208.89 65.694 208.89C67.2592 208.89 68.433 210.064 68.433 211.629C68.433 213.194 67.0635 214.368 65.694 214.368ZM47.8903 216.325C47.8903 217.89 49.2598 219.064 50.6293 219.064C52.1945 219.064 53.564 217.694 53.564 216.129C53.564 213.977 51.9988 213.39 50.0424 213.194C47.1077 212.999 44.5643 210.455 44.5643 207.325C44.5643 204.39 46.5207 202.043 49.0641 201.456V200.086C49.0641 199.108 49.8467 198.521 50.8249 198.521C51.8032 198.521 52.3901 199.304 52.3901 200.086V201.456C54.3466 202.043 55.7161 203.412 56.4987 205.173C56.5322 205.307 56.5658 205.436 56.5984 205.56C56.7557 206.163 56.8899 206.677 56.8899 207.325C56.8899 208.108 56.1074 208.89 55.1291 208.89C54.1509 208.89 53.564 208.108 53.564 207.325C53.564 205.76 52.1945 204.39 50.6293 204.39C49.0641 204.39 47.6946 205.76 47.6946 207.325C47.6946 208.89 49.0641 210.26 50.6293 210.26C52.5857 210.26 54.5422 211.238 55.5204 212.803C56.303 213.781 56.6943 215.151 56.6943 216.52C56.6943 219.455 54.7378 221.803 52.1945 222.39V223.759C52.1945 224.737 51.4119 225.324 50.6293 225.324C49.8467 225.324 48.8685 224.542 48.8685 223.759V222.194L48.4772 221.998C47.1077 221.607 46.1294 220.629 45.5425 219.455C44.9556 218.477 44.5643 217.499 44.5643 216.129C44.5643 215.151 45.3469 214.564 46.3251 214.564C47.3033 214.564 47.8903 215.346 47.8903 216.325ZM35.9559 209.086C37.521 209.086 38.6949 210.26 38.6949 211.825C38.6949 213.39 37.3254 214.368 35.9559 214.368C34.3907 214.368 33.2168 213.194 33.2168 211.629C33.2168 210.064 34.3907 209.086 35.9559 209.086Z" fill="#472BE3"/>
<path d="M51.9988 236.672C65.1071 236.085 75.6719 225.129 75.6719 211.825C75.6719 198.13 64.5201 186.782 50.6293 186.782C36.9341 186.782 25.7823 197.934 25.7823 211.825C25.7823 225.716 37.3254 237.259 51.9988 236.672ZM65.694 214.368C64.1288 214.368 62.955 213.194 62.955 211.629C62.955 210.064 64.1288 208.89 65.694 208.89C67.2592 208.89 68.433 210.064 68.433 211.629C68.433 213.194 67.0635 214.368 65.694 214.368ZM47.8903 216.325C47.8903 217.89 49.2598 219.064 50.6293 219.064C52.1945 219.064 53.564 217.694 53.564 216.129C53.564 213.977 51.9988 213.39 50.0424 213.194C47.1077 212.999 44.5643 210.455 44.5643 207.325C44.5643 204.39 46.5207 202.043 49.0641 201.456V200.086C49.0641 199.108 49.8467 198.521 50.8249 198.521C51.8032 198.521 52.3901 199.304 52.3901 200.086V201.456C54.3466 202.043 55.7161 203.412 56.4987 205.173C56.5322 205.307 56.5658 205.436 56.5984 205.56C56.7557 206.163 56.8899 206.677 56.8899 207.325C56.8899 208.108 56.1074 208.89 55.1291 208.89C54.1509 208.89 53.564 208.108 53.564 207.325C53.564 205.76 52.1945 204.39 50.6293 204.39C49.0641 204.39 47.6946 205.76 47.6946 207.325C47.6946 208.89 49.0641 210.26 50.6293 210.26C52.5857 210.26 54.5422 211.238 55.5204 212.803C56.303 213.781 56.6943 215.151 56.6943 216.52C56.6943 219.455 54.7378 221.803 52.1945 222.39V223.759C52.1945 224.737 51.4119 225.324 50.6293 225.324C49.8467 225.324 48.8685 224.542 48.8685 223.759V222.194L48.4772 221.998C47.1077 221.607 46.1294 220.629 45.5425 219.455C44.9556 218.477 44.5643 217.499 44.5643 216.129C44.5643 215.151 45.3469 214.564 46.3251 214.564C47.3033 214.564 47.8903 215.346 47.8903 216.325ZM35.9559 209.086C37.521 209.086 38.6949 210.26 38.6949 211.825C38.6949 213.39 37.3254 214.368 35.9559 214.368C34.3907 214.368 33.2168 213.194 33.2168 211.629C33.2168 210.064 34.3907 209.086 35.9559 209.086Z" stroke="white"/>
<circle cx="106.975" cy="205.369" r="16.6299" fill="white"/>
</svg>
