<svg width="193" height="559" viewBox="0 0 193 559" fill="none" xmlns="http://www.w3.org/2000/svg">
<line x1="99" y1="8.74228e-08" x2="99" y2="434" stroke="#D0E3FF" stroke-width="4"/>
<path d="M103.707 385.487L103.699 385.486L103.691 385.485C92.3612 384.032 81.2377 385.992 71.3635 391.044L69.4997 389.016L61.3478 380.145L59.2083 392.001L55.6192 411.891L54.2496 419.481L61.9415 418.919L82.4294 417.424L94.5163 416.541L87.2107 408.323C91.6417 407.032 96.3425 406.65 101.127 407.222C109.68 408.381 117.161 412.445 122.777 418.954L126.482 423.248L130.967 419.778L138.893 413.647L143.881 409.788L139.765 405.011C130.436 394.183 117.736 387.324 103.707 385.487Z" fill="#472BE3" stroke="white" stroke-width="11.9638"/>
<path d="M18.4871 451.208L18.486 451.216L18.485 451.224C17.0324 462.554 18.9925 473.678 24.044 483.552L22.0158 485.416L13.225 493.494L24.9583 495.699L44.848 499.438L52.4848 500.873L51.9191 493.124L50.4236 472.636L49.5414 460.549L41.3225 467.854C40.0321 463.423 39.6502 458.723 40.2224 453.938C41.3808 445.385 45.4446 437.904 51.9543 432.287L56.2478 428.583L52.7782 424.098L46.6467 416.172L42.8225 411.229L38.0514 415.266C27.1813 424.464 20.3233 437.186 18.4871 451.208Z" fill="#472BE3" stroke="white" stroke-width="11.9638"/>
<path d="M136.619 514.14L138.108 506.465L130.311 507.034L109.823 508.53L97.7359 509.412L105.042 517.631C100.611 518.921 95.9098 519.303 91.1251 518.731C82.572 517.573 75.091 513.509 69.4748 506.999L65.7706 502.706L61.2854 506.175L53.3594 512.307L48.4604 516.097L52.4184 520.861C61.4559 531.739 74.1866 538.775 88.2459 540.616L88.2539 540.617L88.262 540.618C99.592 542.071 110.715 540.111 120.59 535.059L122.453 537.087L130.473 545.814L132.73 534.179L136.619 514.14Z" fill="#472BE3" stroke="white" stroke-width="11.9638"/>
<path d="M148.037 423.082L140.362 421.593L140.931 429.39L142.427 449.878L143.309 461.965L151.528 454.66C152.818 459.091 153.2 463.791 152.628 468.576C151.47 477.129 147.406 484.61 140.896 490.226L136.603 493.931L140.072 498.416L146.204 506.342L149.994 511.241L154.758 507.283C165.636 498.245 172.672 485.514 174.513 471.455L174.514 471.447L174.515 471.439C175.968 460.109 174.008 448.986 168.956 439.111L170.984 437.248L179.711 429.228L168.076 426.971L148.037 423.082Z" fill="#472BE3" stroke="white" stroke-width="11.9638"/>
<path d="M61.2069 433.89L56.9771 429.66L64.903 421.734C68.1364 418.5 73.2698 418.5 76.5032 421.734L78.7207 423.951C79.9425 423.375 81.1874 422.863 82.4426 422.412V418.337C82.4426 413.837 86.1676 410.112 90.6677 410.112H101.884C102.617 410.112 103.583 410.196 104.603 410.515C105.516 410.8 107.274 411.526 108.506 413.374C109.004 414.12 110.109 415.94 110.109 418.337V422.019C111.793 422.592 113.447 423.275 115.062 424.066L116.945 422.182L121.029 426.266L116.945 422.182C120.179 418.949 125.312 418.949 128.546 422.182L124.385 426.343L128.546 422.182L136.472 430.108C139.705 433.342 139.705 438.475 136.472 441.709L134.603 443.577C135.231 444.861 135.782 446.167 136.261 447.498H138.672C140.192 447.498 142.581 447.882 144.547 449.849L144.966 450.267L145.295 450.76C145.792 451.507 146.897 453.327 146.897 455.723V466.94C146.897 467.917 146.817 471.441 143.635 473.562L61.2069 433.89ZM61.2069 433.89L56.9771 429.66C53.7437 432.893 53.7437 438.027 56.9771 441.26L59.0048 443.288C58.3527 444.628 57.7819 445.984 57.2797 447.349H52.5332C48.0331 447.349 44.3081 451.074 44.3081 455.574V466.79C44.3081 469.186 45.4132 471.007 45.9109 471.753C47.1428 473.601 48.9008 474.326 49.8142 474.612C50.8338 474.931 51.7996 475.015 52.5332 475.015H56.801C57.3775 476.738 58.0671 478.443 58.8717 480.107L56.9771 482.001L61.1666 486.191L56.977 482.001C53.7437 485.235 53.7437 490.368 56.977 493.601L61.13 489.448L56.9771 493.601L64.903 501.527L69.1329 497.298L64.9031 501.527C68.1364 504.761 73.2698 504.761 76.5032 501.527L72.2734 497.298L76.5032 501.527L78.4166 499.614C79.6696 500.227 80.9606 500.787 82.293 501.282V504.924C82.293 507.321 83.3982 509.141 83.8959 509.888L84.2244 510.38L84.6433 510.799C86.6094 512.765 88.9978 513.15 90.5181 513.15H101.734C104.13 513.15 105.951 512.044 106.697 511.547C109.879 509.426 109.959 505.902 109.959 504.924V501.733C111.761 501.137 113.537 500.414 115.267 499.55L116.646 500.929C119.88 504.163 125.013 504.163 128.246 500.929L124.017 496.699L128.247 500.929L136.172 493.003C139.406 489.77 139.406 484.636 136.173 481.403L131.943 485.633L136.172 481.403L134.671 479.901C135.404 478.353 136.052 476.769 136.605 475.165H138.672C141.068 475.165 142.889 474.06 143.635 473.562L61.2069 433.89ZM108.122 473.328C101.764 479.686 91.5229 479.632 85.3631 473.364C79.0592 466.95 79.068 456.683 85.2895 450.568C91.7041 444.265 101.971 444.273 108.086 450.495C114.369 456.888 114.414 467.036 108.122 473.328Z" fill="#472BE3" stroke="white" stroke-width="11.9638"/>
</svg>
