<svg width="1920" height="268" viewBox="0 0 1920 268" fill="none" xmlns="http://www.w3.org/2000/svg">
<path d="M-92 106.42C-74.8333 41.2532 -6.3 -61.0802 130.5 50.9198C301.5 190.92 382.5 13.4198 454.5 81.4198C526.5 149.42 663 259.42 765.5 138.92C868 18.4198 924 168.42 1013.5 81.4198C1103 -5.58014 1174 264.92 1335.5 138.92C1497 12.9198 1510 280.92 1637.5 199.92C1765 118.92 1749 -92.5801 2011.5 113.92" stroke="#9370E4"/>
<path opacity="0.2" d="M-92 132.42C-74.8333 67.2532 -6.3 -35.0802 130.5 76.9198C301.5 216.92 382.5 39.4198 454.5 107.42C526.5 175.42 663 285.42 765.5 164.92C868 44.4198 924 194.42 1013.5 107.42C1103 20.4199 1174 290.92 1335.5 164.92C1497 38.9198 1510 306.92 1637.5 225.92C1765 144.92 1749 -66.5801 2011.5 139.92" stroke="#9370E4"/>
<path opacity="0.1" d="M-92 158.42C-74.8333 93.2532 -6.3 -9.08015 130.5 102.92C301.5 242.92 382.5 65.4198 454.5 133.42C526.5 201.42 663 311.42 765.5 190.92C868 70.4198 924 220.42 1013.5 133.42C1103 46.4199 1174 316.92 1335.5 190.92C1497 64.9198 1510 332.92 1637.5 251.92C1765 170.92 1749 -40.5801 2011.5 165.92" stroke="#9370E4"/>
</svg>
