<?xml version="1.0" encoding="UTF-8"?>
<svg id="Capa_2" data-name="Capa 2" xmlns="http://www.w3.org/2000/svg" viewBox="0 0 313.86 73.96">
  <defs>
    <style>
      .cls-1 {
        fill: #1d1d1b;
      }
    </style>
  </defs>
  <g id="Capa_1-2" data-name="Capa 1">
    <path class="cls-1" d="m5.55,68.8h19.9v4.52H0V17.91h5.55v50.9Zm66.04-14.98h-35.91c.16,3.28.95,6.08,2.38,8.4,1.43,2.33,3.3,4.08,5.63,5.27,2.33,1.19,4.86,1.78,7.61,1.78,3.59,0,6.62-.87,9.08-2.62,2.46-1.74,4.08-4.09,4.88-7.06h5.87c-1.06,4.23-3.32,7.68-6.78,10.35-3.46,2.67-7.81,4-13.04,4-4.07,0-7.72-.91-10.94-2.74-3.22-1.82-5.75-4.41-7.57-7.77-1.82-3.36-2.73-7.28-2.73-11.77s.9-8.43,2.7-11.81c1.8-3.38,4.31-5.97,7.53-7.77,3.22-1.8,6.9-2.7,11.02-2.7s7.73.9,10.82,2.7c3.09,1.8,5.47,4.22,7.14,7.25,1.67,3.04,2.5,6.41,2.5,10.11,0,1.9-.05,3.36-.16,4.36Zm-7.41-12.76c-1.35-2.27-3.18-3.99-5.51-5.15-2.33-1.16-4.86-1.74-7.61-1.74-4.12,0-7.64,1.32-10.54,3.96-2.91,2.64-4.52,6.37-4.84,11.18h30.44c.05-3.22-.59-5.97-1.94-8.25Zm17.04-1.15c1.77-3.36,4.23-5.95,7.37-7.77,3.14-1.82,6.7-2.74,10.66-2.74s7.68.95,10.66,2.85c2.99,1.9,5.14,4.33,6.46,7.29v-9.51h5.55v43.29h-5.55v-9.59c-1.38,2.96-3.56,5.41-6.54,7.33-2.99,1.93-6.54,2.89-10.66,2.89s-7.44-.92-10.58-2.77c-3.15-1.85-5.6-4.47-7.37-7.85-1.77-3.38-2.66-7.29-2.66-11.73s.88-8.34,2.66-11.69Zm33.02,2.58c-1.43-2.64-3.37-4.68-5.83-6.1-2.46-1.43-5.17-2.14-8.13-2.14s-5.81.69-8.25,2.06c-2.43,1.38-4.35,3.37-5.75,5.99-1.4,2.62-2.1,5.72-2.1,9.32s.7,6.65,2.1,9.32c1.4,2.67,3.32,4.71,5.75,6.11,2.43,1.4,5.18,2.1,8.25,2.1s5.67-.71,8.13-2.14c2.46-1.43,4.4-3.46,5.83-6.1,1.43-2.64,2.14-5.71,2.14-9.2s-.71-6.55-2.14-9.2Zm30.72-11.02c2.51-1.48,5.59-2.22,9.24-2.22v5.79h-1.51c-4.02,0-7.24,1.08-9.67,3.25-2.43,2.17-3.65,5.79-3.65,10.86v24.18h-5.55V30.04h5.55v7.69c1.22-2.7,3.08-4.78,5.59-6.26Zm49.75,2.58c3.28,3.2,4.92,7.84,4.92,13.91v25.37h-5.47v-24.74c0-4.7-1.18-8.3-3.53-10.78-2.35-2.48-5.56-3.73-9.63-3.73s-7.5,1.32-9.99,3.96c-2.48,2.64-3.73,6.53-3.73,11.65v23.63h-5.55V30.04h5.55v7.37c1.37-2.64,3.36-4.66,5.95-6.06s5.52-2.1,8.8-2.1c5.18,0,9.41,1.6,12.68,4.8Zm50.02,28.74h-22.04l-3.65,10.54h-11.65l19.9-55.42h12.92l19.9,55.42h-11.73l-3.65-10.54Zm-3.01-8.88l-8.01-23.15-8.01,23.15h16.01Zm36.31-18.09v37.51h-11.1v-37.51h11.1Zm17.92-17.9V0h-11.1v17.91h-17.91v11.1h17.91v17.91h11.1v-17.91h17.91v-11.1h-17.91Z"/>
  </g>
</svg>