<svg width="265" height="87" viewBox="0 0 265 87" fill="none" xmlns="http://www.w3.org/2000/svg">
<path d="M17.3513 60.423C15.3932 71.7004 17.3151 80.6752 23.4252 84.3013C25.2564 85.3892 27.3414 85.9331 29.644 85.9331C34.0317 85.9331 39.1627 83.975 44.6563 80.1312C45.5991 79.4604 46.5419 78.7533 47.4847 77.9918C48.4094 78.7714 49.3341 79.4967 50.2769 80.1856C55.8068 84.2469 61.0285 86.3139 65.4705 86.3139C67.6462 86.3139 69.6587 85.8243 71.4174 84.809C76.8204 81.7449 79.2862 74.4563 78.3615 64.2849C78.2527 63.1427 78.1077 61.9823 77.9264 60.7857C79.0505 60.3687 80.1383 59.9335 81.1899 59.4621C90.5273 55.3102 95.6946 49.599 95.7127 43.3982C95.749 37.1975 90.6361 31.4319 81.3531 27.1711C80.374 26.7179 79.3587 26.319 78.3253 25.9201C78.5247 24.8323 78.6879 23.7444 78.8148 22.6747C79.957 12.5214 77.6544 5.17847 72.3421 2.00557C66.1776 -1.65685 57.2935 1.00838 48.2281 8.26071C39.3259 0.827073 30.4962 -2.01946 24.2592 1.49791C18.8743 4.54389 16.4085 11.8325 17.3513 22.022C17.4601 23.1461 17.6052 24.3065 17.7865 25.485C6.90799 29.51 0.0364083 35.747 0.000146664 42.9268C-0.036115 50.0341 6.65415 56.2892 17.3513 60.423ZM43.0064 77.7561C35.736 82.8509 29.1364 84.3195 24.9119 81.8174C20.0528 78.9165 18.6024 71.2109 20.216 61.4384C24.7124 62.9251 29.7709 64.0492 35.2646 64.7563C38.4375 69.0352 41.8279 72.8245 45.309 76.0337C44.5294 76.632 43.7679 77.2303 43.0064 77.7561ZM47.4666 23.6538C47.6298 23.6538 47.8111 23.6538 47.9743 23.6538C51.7274 23.6719 55.3717 23.9076 58.9253 24.3246C61.0103 27.1893 63.0047 30.2715 64.8541 33.5532C66.7034 36.8167 68.317 40.1165 69.7131 43.3982C68.2445 46.6436 66.5584 49.9072 64.6365 53.1345C62.7509 56.3255 60.7021 59.3171 58.5808 62.1273C55.2447 62.4718 51.7999 62.6713 48.3006 62.6713C48.1193 62.6713 47.938 62.6713 47.7748 62.6713C44.0218 62.6531 40.3412 62.4174 36.842 62.0004C34.7569 59.1176 32.7625 56.0354 30.9132 52.7719C29.0638 49.5083 27.4502 46.2085 26.0541 42.9268C27.5046 39.6995 29.2089 36.436 31.1308 33.1906C33.0345 29.9996 35.0651 26.9898 37.1864 24.1977C40.4681 23.8351 43.913 23.6538 47.4666 23.6538ZM67.3561 32.1209C65.9238 29.5825 64.4008 27.1711 62.8597 24.8685C67.1929 25.5575 71.2724 26.5547 74.9892 27.8239C74.1552 31.6676 72.9041 35.6745 71.2542 39.7539C70.0939 37.1975 68.7885 34.641 67.3561 32.1209ZM74.6266 58.8457C70.9098 60.0423 66.8666 60.9851 62.5515 61.6197C64.147 59.3715 65.6881 57.0507 67.1385 54.6031C68.6253 52.101 69.967 49.5808 71.1999 47.0606C72.7228 51.1038 73.8651 55.0563 74.6266 58.8457ZM28.6106 31.7038C27.1238 34.224 25.764 36.7442 24.5493 39.2281C23.0263 35.2031 21.884 31.2687 21.1225 27.4975C24.7668 26.319 28.8281 25.3762 33.1614 24.7235C31.584 26.9173 30.061 29.2562 28.6106 31.7038ZM28.3749 54.2042C29.8072 56.7244 31.3121 59.1358 32.8894 61.4384C28.5199 60.7313 24.4224 59.716 20.7781 58.4831C21.5939 54.7118 22.845 50.7049 24.4767 46.5892C25.6552 49.1276 26.9425 51.684 28.3749 54.2042ZM39.2171 65.1733C41.973 65.409 44.8195 65.5541 47.7386 65.5722C47.9199 65.5722 48.1012 65.5722 48.2825 65.5722C50.9296 65.5722 53.5404 65.4453 56.115 65.264C53.3591 68.6182 50.4582 71.6098 47.5391 74.1662C44.6926 71.5735 41.9005 68.5457 39.2171 65.1733ZM70.0032 82.2888C65.7243 84.7183 59.161 83.0866 51.9993 77.8468C51.256 77.3028 50.4945 76.6864 49.7511 76.0699C53.341 72.897 56.8402 69.1258 60.1401 64.847C65.5068 64.2124 70.5653 63.1608 75.1342 61.7103C75.2793 62.6531 75.4062 63.5959 75.4968 64.5206C76.2946 73.3866 74.3002 79.8593 70.0032 82.2888ZM80.1565 29.8182C88.2428 33.5169 92.848 38.4666 92.8299 43.3982C92.8118 48.3117 88.134 53.207 80.0296 56.815C79.1774 57.1958 78.289 57.5403 77.4006 57.8847C76.4397 53.2432 74.9167 48.3661 72.886 43.4164C75.0617 38.4304 76.7116 33.5169 77.7632 28.821C78.561 29.1474 79.395 29.4738 80.1565 29.8182ZM66.1051 3.29286C67.8638 3.29286 69.4593 3.69174 70.8554 4.50763C75.0798 7.02781 76.9292 13.5186 75.932 22.3483C75.8413 23.2005 75.6963 24.0708 75.5512 24.9411C70.9823 23.4181 65.9238 22.294 60.5389 21.5869C57.3116 17.2355 53.9212 13.428 50.5126 10.2732C56.1694 5.84931 61.6449 3.29286 66.1051 3.29286ZM56.4958 21.1517C53.7036 20.916 50.8571 20.771 47.9743 20.7528C47.793 20.7528 47.6117 20.7528 47.4122 20.7528C44.747 20.7528 42.1543 20.8616 39.6341 21.0429C42.4262 17.6706 45.309 14.7153 48.1918 12.2132C51.0021 14.7515 53.8124 17.7612 56.4958 21.1517ZM25.6915 4.03623C30.6593 1.22595 38.1655 3.87305 45.9074 10.2188C42.4081 13.3192 38.9089 17.0904 35.5728 21.4055C30.1154 22.0401 25.0751 23.0917 20.5968 24.524C20.4517 23.5994 20.3248 22.6747 20.2523 21.7682C19.4364 12.9203 21.4126 6.46576 25.6915 4.03623ZM2.90108 42.945C2.93734 37.2337 8.9749 32.0302 18.3485 28.4766C19.3095 33.0999 20.8143 37.959 22.845 42.8724C20.6149 47.9309 18.9831 52.8625 17.9315 57.4677C8.7392 53.8053 2.86481 48.6018 2.90108 42.945Z" fill="white"/>
<path d="M28.8255 42.2019C28.336 42.7639 28.336 43.5798 28.8074 44.2144L28.8255 44.2325C32.9593 49.3454 40.1391 54.8209 47.8266 54.8209C51.1808 54.8209 54.7888 53.7512 58.2518 51.7205C61.3884 49.8712 64.3619 47.2966 66.8277 44.2506C67.154 43.8699 67.154 43.4891 67.154 43.2353C67.154 42.909 67.0634 42.6007 66.8821 42.2925L66.8458 42.22C62.7483 37.1071 55.6228 31.6316 47.8447 31.6316C44.4905 31.6316 40.8825 32.7013 37.4195 34.732C34.2466 36.5813 31.2913 39.1559 28.8255 42.2019ZM31.672 43.2172C36.3861 37.8505 42.4055 34.6594 47.8266 34.6594C53.2477 34.6594 59.249 37.8505 63.9811 43.2172C59.2671 48.5839 53.2477 51.7749 47.8266 51.7749C42.478 51.7749 36.4586 48.5839 31.672 43.2172Z" fill="white"/>
<path d="M53.3069 47.0243C52.8536 47.0243 52.4003 46.843 52.0921 46.4804L47.7951 41.6213L42.8635 46.5529C42.2289 47.1875 41.1955 47.1875 40.5609 46.5529C39.9263 45.9183 39.9263 44.8849 40.5609 44.2503L46.7254 38.0858C47.0517 37.7594 47.4869 37.5963 47.922 37.6144C48.3753 37.6325 48.7923 37.832 49.1005 38.1583L54.5579 44.3228C55.1562 44.9936 55.0837 46.0271 54.4128 46.6254C54.0865 46.8974 53.7057 47.0243 53.3069 47.0243Z" fill="white"/>
<path d="M122.082 34.5669L122.051 37.7668L122.454 37.3629C122.641 37.1765 123.045 36.8658 123.635 36.4309C124.256 35.9959 124.878 35.6231 125.561 35.2814C126.245 34.9397 127.083 34.629 128.14 34.3494C129.196 34.0698 130.221 33.9455 131.277 33.9455C134.974 33.9455 137.957 35.1571 140.256 37.5804C142.555 40.0036 143.704 43.2345 143.704 47.3354V65.1367H137.335V47.3354C137.335 45.1296 136.621 43.2967 135.223 41.8365C133.825 40.4074 132.085 39.6618 130.035 39.6618C127.612 39.6618 125.654 40.4696 124.225 42.0229C122.796 43.5763 122.082 45.782 122.082 48.5781V65.1057H115.713V34.5669H122.082Z" fill="white"/>
<path d="M176.169 49.8518C176.169 46.9936 175.206 44.6015 173.342 42.6132C171.447 40.656 169.21 39.6618 166.632 39.6618C164.022 39.6618 161.785 40.656 159.89 42.6132C157.995 44.6015 157.063 46.9936 157.063 49.8518C157.063 52.71 157.995 55.1021 159.89 57.0593C161.785 59.0476 164.022 60.0107 166.632 60.0107C169.21 60.0107 171.447 59.0476 173.342 57.0593C175.206 55.1021 176.169 52.71 176.169 49.8518ZM150.725 49.8518C150.725 45.5646 152.279 41.8365 155.448 38.6677C158.616 35.4989 162.344 33.9145 166.632 33.9145C170.919 33.9145 174.616 35.4989 177.785 38.6677C180.953 41.8365 182.538 45.5646 182.538 49.8518C182.538 54.139 180.953 57.836 177.785 61.0048C174.616 64.1737 170.919 65.7581 166.632 65.7581C162.344 65.7581 158.616 64.1737 155.448 61.0048C152.279 57.836 150.725 54.139 150.725 49.8518Z" fill="white"/>
<path d="M206.708 39.9725C205.838 39.7861 204.875 39.6618 203.819 39.6618C201.396 39.6618 199.469 40.4696 198.04 42.0229C196.611 43.5763 195.866 45.782 195.866 48.5781V65.1057H189.497V34.5669H195.866V37.7357L196.269 37.3318C196.456 37.1454 196.86 36.8658 197.45 36.4309C198.071 35.9959 198.693 35.6231 199.376 35.2814C200.06 34.9397 200.898 34.629 201.955 34.3494C203.011 34.0698 204.067 33.9145 205.124 33.9145H206.708V39.9725Z" fill="white"/>
<path d="M215.593 30.7456V24.3769H221.309V34.5669H227.678V40.2832H221.309V56.1273C221.309 57.2768 221.651 58.2088 222.397 58.9233C223.111 59.669 224.012 60.0107 225.1 60.0107C225.597 60.0107 226.094 59.9796 226.622 59.8554C227.15 59.7622 227.554 59.6379 227.834 59.5136L228.3 59.3894V65.1057C227.057 65.5406 225.566 65.727 223.826 65.727C217.892 65.727 214.941 62.5582 214.972 56.1895V40.2832H209.224V34.5669H212.424C214.537 34.5669 215.593 33.2931 215.593 30.7456Z" fill="white"/>
<path d="M242.932 20.5557V37.7668C242.994 37.6736 243.15 37.5493 243.336 37.3629C243.522 37.1765 243.926 36.8658 244.516 36.4309C245.107 35.9959 245.759 35.6231 246.443 35.2814C247.126 34.9397 247.965 34.629 249.021 34.3494C250.046 34.0698 251.103 33.9455 252.159 33.9455C255.825 33.9455 258.838 35.1571 261.137 37.5804C263.436 40.0036 264.586 43.2345 264.586 47.3354V65.1367H258.217V47.3354C258.217 45.1296 257.502 43.2967 256.104 41.8365C254.706 40.4074 252.967 39.6618 250.885 39.6618C248.462 39.6618 246.505 40.4696 245.076 42.0229C243.647 43.5763 242.932 45.782 242.932 48.5781V65.1057H236.594V20.5557H242.932Z" fill="white"/>
</svg>
